<?xml version="1.0" encoding="UTF-8" standalone="no"?>
<svg
   xmlns:dc="http://purl.org/dc/elements/1.1/"
   xmlns:cc="http://creativecommons.org/ns#"
   xmlns:rdf="http://www.w3.org/1999/02/22-rdf-syntax-ns#"
   xmlns:svg="http://www.w3.org/2000/svg"
   xmlns="http://www.w3.org/2000/svg"
   xmlns:xlink="http://www.w3.org/1999/xlink"
   xmlns:sodipodi="http://sodipodi.sourceforge.net/DTD/sodipodi-0.dtd"
   xmlns:inkscape="http://www.inkscape.org/namespaces/inkscape"
   width="650"
   height="150"
   viewBox="0 0 171.97918 39.6875"
   version="1.1"
   id="svg8"
   inkscape:version="1.0.1 (3bc2e813f5, 2020-09-07)"
   sodipodi:docname="with-text.svg"
   inkscape:export-filename="C:\Users\saksham\Desktop\drawing=try-3.png"
   inkscape:export-xdpi="96"
   inkscape:export-ydpi="96">
  <defs
     id="defs2">
    <linearGradient
       inkscape:collect="always"
       id="linearGradient871">
      <stop
         style="stop-color:#2affd5;stop-opacity:1"
         offset="0"
         id="stop867" />
      <stop
         style="stop-color:#0066ff;stop-opacity:1"
         offset="1"
         id="stop869" />
    </linearGradient>
    <rect
       x="110.36905"
       y="77.10714"
       width="131.15775"
       height="32.88393"
       id="rect863" />
    <linearGradient
       inkscape:collect="always"
       id="linearGradient956">
      <stop
         style="stop-color:#00ffff;stop-opacity:1"
         offset="0"
         id="stop952" />
      <stop
         style="stop-color:#00ffff;stop-opacity:1"
         offset="1"
         id="stop954" />
    </linearGradient>
    <linearGradient
       inkscape:collect="always"
       id="linearGradient955">
      <stop
         style="stop-color:#8cda88;stop-opacity:1;"
         offset="0"
         id="stop951" />
      <stop
         style="stop-color:#00ffff;stop-opacity:1"
         offset="1"
         id="stop953" />
    </linearGradient>
    <linearGradient
       inkscape:collect="always"
       xlink:href="#linearGradient955"
       id="linearGradient957"
       x1="102.80952"
       y1="60.098221"
       x2="23.505068"
       y2="173.51027"
       gradientUnits="userSpaceOnUse"
       gradientTransform="translate(38.364582,115.47172)" />
    <linearGradient
       inkscape:collect="always"
       xlink:href="#linearGradient955"
       id="linearGradient920"
       gradientUnits="userSpaceOnUse"
       gradientTransform="matrix(0.25669124,0,0,0.25541269,-3.409902,-11.535928)"
       x1="102.80952"
       y1="60.098221"
       x2="23.505068"
       y2="173.51027" />
    <radialGradient
       inkscape:collect="always"
       xlink:href="#linearGradient956"
       id="radialGradient958"
       cx="111.49339"
       cy="84.236336"
       fx="111.49339"
       fy="84.236336"
       r="21.635403"
       gradientTransform="matrix(1.7422107,1.4444142e-4,0.00443365,0.18711613,-83.125042,69.042726)"
       gradientUnits="userSpaceOnUse" />
    <radialGradient
       inkscape:collect="always"
       xlink:href="#linearGradient871"
       id="radialGradient873"
       cx="222.89885"
       cy="43.015308"
       fx="222.89885"
       fy="43.015308"
       r="57.577972"
       gradientTransform="matrix(-1.8801847,0.20072892,-0.0195381,-0.13349708,642.83031,43.302152)"
       gradientUnits="userSpaceOnUse" />
  </defs>
  <sodipodi:namedview
     id="base"
     pagecolor="#ffffff"
     bordercolor="#666666"
     borderopacity="1.0"
     inkscape:pageopacity="0.0"
     inkscape:pageshadow="2"
     inkscape:zoom="1"
     inkscape:cx="595.64442"
     inkscape:cy="184.95607"
     inkscape:document-units="mm"
     inkscape:current-layer="layer1"
     inkscape:document-rotation="0"
     showgrid="false"
     inkscape:window-width="1920"
     inkscape:window-height="986"
     inkscape:window-x="-11"
     inkscape:window-y="-11"
     inkscape:window-maximized="1"
     inkscape:pagecheckerboard="true"
     inkscape:snap-global="true"
     inkscape:snap-nodes="false"
     showborder="true"
     units="px" />
  <metadata
     id="metadata5">
    <rdf:RDF>
      <cc:Work
         rdf:about="">
        <dc:format>image/svg+xml</dc:format>
        <dc:type
           rdf:resource="http://purl.org/dc/dcmitype/StillImage" />
        <dc:title></dc:title>
      </cc:Work>
    </rdf:RDF>
  </metadata>
  <g
     inkscape:label="Layer 1"
     inkscape:groupmode="layer"
     id="layer1">
    <path
       id="rect47"
       style="fill:url(#linearGradient920);fill-opacity:1;stroke-width:0.067747"
       d="m 4.740026,1.014282 c -1.720028,0 -3.104779,1.377851 -3.104779,3.089315 V 30.0728 c 0,0.65666 0.204441,1.26377 0.552881,1.76323 0.04922,0.18107 0.145356,0.3514 0.28997,0.48928 l 5.8910677,5.61662 c 0.147754,0.1763 0.315075,0.33556 0.498495,0.47515 l 0.129731,0.12368 c 0.160432,0.15296 0.355036,0.24257 0.555533,0.27136 0.369536,0.15378 0.7757143,0.2389 1.2025953,0.2389 h 17.173123 c 1.720024,0 3.104781,-1.37785 3.104781,-3.08931 V 9.992513 c 0,-1.711459 -1.384757,-3.089315 -3.104781,-3.089315 v -0.09648 c 0,-1.654703 -1.294496,-2.99745 -2.934856,-3.084696 C 24.805855,2.19202 23.503195,1.014285 21.913147,1.014285 Z m 0.841127,2.003712 h 15.38475 c 1.336968,0 2.420447,1.036276 2.490084,2.34873 0.01189,0.0098 0.02095,0.0271 0.02095,0.05398 v 0.02561 0.01702 c 0,6.82e-4 -2.03e-4,0.0013 0,0.0022 2.03e-4,9.1e-4 7.89e-4,0.0022 0,0.0022 -2.03e-4,5e-6 -5.24e-4,1.36e-4 -7.89e-4,1.36e-4 -3.9e-5,2.81e-4 -2.03e-4,4.08e-4 -2.56e-4,6.26e-4 1.33e-4,8.52e-4 10e-4,0.0015 10e-4,0.0024 v 0.0033 c 0.0015,0.0042 0.0026,0.0082 0.0034,0.01465 0.01964,0.01782 0.02951,0.03768 0.01977,0.05953 7.89e-4,0.0024 0.0018,0.0047 0.0026,0.0071 0.0026,0.0086 -0.0018,0.02422 -1.35e-4,0.03353 0,0.0082 2.56e-4,0.01635 5.24e-4,0.02455 0.0015,0.0038 0.0023,0.0093 0.0012,0.01874 -7.89e-4,0.0063 -0.0012,0.0079 -0.0018,0.01096 -2.03e-4,0.0081 -1.36e-4,0.01616 -0.0011,0.02416 0.0072,0.01098 0.0089,0.01409 0.01,0.02547 2.57e-4,0.0055 -2.56e-4,0.01071 -7.89e-4,0.01636 0.0107,0.01574 0.0092,0.03098 0.009,0.05702 h 1.36e-4 c -6.7e-5,0.01282 -0.0026,0.02301 -0.006,0.03194 v 1.104989 h -0.001 v 2.067594 h 0.001 V 28.40261 c 0,0.18289 -0.01833,0.3613 -0.05292,0.53376 -0.001,1.37439 -1.113575,2.48045 -2.495128,2.48045 H 5.58122 c -1.382264,0 -2.494993,-1.10718 -2.494993,-2.48256 V 5.500692 c 0,-1.37538 1.112729,-2.482698 2.494993,-2.482698 z m 17.917812,2.678304 c 2.06e-4,2.02e-4 5.25e-4,4.64e-4 7.89e-4,6.25e-4 -7e-5,-2.8e-4 -5.6e-5,-2.8e-4 -1.36e-4,-5.56e-4 -2.03e-4,-6.2e-5 -5.25e-4,-6.2e-5 -7.89e-4,-1.35e-4 z m 1.505698,0.08474 c 0.005,0 0.05543,0.02046 0.112087,0.04527 0.617642,0.270568 1.082072,0.786187 1.234432,1.370698 0.0402,0.154234 0.05217,0.229874 0.05624,0.674195 0.0035,-7.96e-4 0.0074,-0.0014 0.01101,-0.0022 v 1.101705 h 0.0063 V 31.10565 c 0,1.49132 -1.206594,2.6919 -2.705372,2.6919 H 9.1545817 V 33.16202 H 21.913148 c 1.720029,0 3.104782,-1.37785 3.104782,-3.08931 V 10.086224 H 24.99565 V 9.13261 H 24.9776 V 7.42785 c 0.0061,0.0064 0.01272,0.01233 0.01897,0.01861 9.02e-4,-0.920075 0.0039,-1.665427 0.0081,-1.665427 z m 2.92398,3.422848 c 0.944874,0.418974 1.600807,1.359594 1.600807,2.458809 V 34.29154 c 0,1.49131 -1.206599,2.6919 -2.705378,2.6919 H 11.859954 c -0.907168,0 -1.706744,-0.44029 -2.1970633,-1.11821 H 24.823862 c 1.720029,0 3.104781,-1.37786 3.104781,-3.08932 z"
       inkscape:export-xdpi="5000"
       inkscape:export-ydpi="5000" />
    <path
       style="fill:#000000;stroke-width:0.0561656"
       id="path1005"
       d="" />
    <text
       xml:space="preserve"
       id="text861"
       style="font-style:normal;font-variant:normal;font-weight:normal;font-stretch:normal;font-size:21.1667px;line-height:1.25;font-family:'Maiandra GD';-inkscape-font-specification:'Maiandra GD, Normal';font-variant-ligatures:normal;font-variant-caps:normal;font-variant-numeric:normal;font-variant-east-asian:normal;white-space:pre;shape-inside:url(#rect863);fill:url(#radialGradient873);fill-opacity:1;stroke:none;"
       transform="matrix(1.0686258,0,0,1.262175,-86.562246,-91.82151)"
       inkscape:export-xdpi="5000"
       inkscape:export-ydpi="5000"><tspan
         x="110.36914"
         y="96.418444"><tspan
           style="font-style:normal;font-variant:normal;font-weight:normal;font-stretch:normal;font-size:21.1667px;font-family:'Maiandra GD';-inkscape-font-specification:'Maiandra GD, Normal';font-variant-ligatures:normal;font-variant-caps:normal;font-variant-numeric:normal;font-variant-east-asian:normal;fill:url(#radialGradient873);fill-opacity:1">STUDINGER</tspan></tspan></text>
  </g>
</svg>
